<?xml version="1.0" encoding="UTF-8" standalone="no"?>
<!DOCTYPE svg PUBLIC "-//W3C//DTD SVG 1.1//EN" "http://www.w3.org/Graphics/SVG/1.1/DTD/svg11.dtd">
<svg version="1.1" xmlns="http://www.w3.org/2000/svg" xmlns:xl="http://www.w3.org/1999/xlink" xmlns:dc="http://purl.org/dc/elements/1.1/" viewBox="60 -540 465 465" width="465" height="465">
  <defs>
    <marker orient="auto" overflow="visible" markerUnits="strokeWidth" id="FilledArrow_Marker" stroke-linejoin="miter" stroke-miterlimit="10" viewBox="-1 -4 10 8" markerWidth="10" markerHeight="8" color="#929292">
      <g>
        <path d="M 8 0 L 0 -3 L 0 3 Z" fill="currentColor" stroke="currentColor" stroke-width="1"/>
      </g>
    </marker>
    <marker orient="auto" overflow="visible" markerUnits="strokeWidth" id="FilledArrow_Marker_2" stroke-linejoin="miter" stroke-miterlimit="10" viewBox="-9 -4 10 8" markerWidth="10" markerHeight="8" color="#929292">
      <g>
        <path d="M -8 0 L 0 3 L 0 -3 Z" fill="currentColor" stroke="currentColor" stroke-width="1"/>
      </g>
    </marker>
    <marker orient="auto" overflow="visible" markerUnits="strokeWidth" id="DimensionArrow_Marker" stroke-linejoin="miter" stroke-miterlimit="10" viewBox="-1 -6 10 12" markerWidth="10" markerHeight="12" color="#929292">
      <g>
        <path d="M 0 0 L 8 0 M 8 5 L 8 -5 M 0 2 L 7 0 L 0 -2" fill="none" stroke="currentColor" stroke-width="1"/>
      </g>
    </marker>
    <marker orient="auto" overflow="visible" markerUnits="strokeWidth" id="DimensionArrow_Marker_2" stroke-linejoin="miter" stroke-miterlimit="10" viewBox="-9 -6 10 12" markerWidth="10" markerHeight="12" color="#929292">
      <g>
        <path d="M 0 0 L -8 0 M -8 -5 L -8 5 M 0 -2 L -7 0 L 0 2" fill="none" stroke="currentColor" stroke-width="1"/>
      </g>
    </marker>
    <marker orient="auto" overflow="visible" markerUnits="strokeWidth" id="DimensionArrow_Marker_3" stroke-linejoin="miter" stroke-miterlimit="10" viewBox="-1 -6 10 12" markerWidth="10" markerHeight="12" color="#5e5e5e">
      <g>
        <path d="M 0 0 L 8 0 M 8 5 L 8 -5 M 0 2 L 7 0 L 0 -2" fill="none" stroke="currentColor" stroke-width="1"/>
      </g>
    </marker>
    <marker orient="auto" overflow="visible" markerUnits="strokeWidth" id="DimensionArrow_Marker_4" stroke-linejoin="miter" stroke-miterlimit="10" viewBox="-9 -6 10 12" markerWidth="10" markerHeight="12" color="#5e5e5e">
      <g>
        <path d="M 0 0 L -8 0 M -8 -5 L -8 5 M 0 -2 L -7 0 L 0 2" fill="none" stroke="currentColor" stroke-width="1"/>
      </g>
    </marker>
    <marker orient="auto" overflow="visible" markerUnits="strokeWidth" id="Arrow_Marker" stroke-linejoin="miter" stroke-miterlimit="10" viewBox="-1 -4 10 8" markerWidth="10" markerHeight="8" color="#5e5e5e">
      <g>
        <path d="M 8 0 L 0 -3 L 0 3 Z" fill="none" stroke="currentColor" stroke-width="1"/>
      </g>
    </marker>
  </defs>
  <g id="Canvas_1" stroke-opacity="1" stroke-dasharray="none" stroke="none" fill-opacity="1" fill="none">
    <title>Canvas 1</title>
    <rect fill="white" x="60" y="-540" width="465" height="465"/>
    <g id="Canvas_1_Layer_2">
      <title>Layer 2</title>
      <g id="Graphic_57">
        <circle cx="323.92562" cy="-336.51062" r="150.000239685284" stroke="#5e5e5e" stroke-linecap="round" stroke-linejoin="round" stroke-width="1"/>
      </g>
    </g>
    <g id="Canvas_1_Layer_1">
      <title>Layer 1</title>
      <g id="Line_59">
        <line x1="80.06307" y1="-86.90021" x2="80.06307" y2="-497.1731" marker-end="url(#FilledArrow_Marker)" marker-start="url(#FilledArrow_Marker_2)" stroke="#929292" stroke-linecap="round" stroke-linejoin="round" stroke-width="1"/>
      </g>
      <g id="Line_60">
        <line x1="74.31521" y1="-94.64807" x2="484.5881" y2="-94.64807" marker-end="url(#FilledArrow_Marker)" marker-start="url(#FilledArrow_Marker_2)" stroke="#929292" stroke-linecap="round" stroke-linejoin="round" stroke-width="1"/>
      </g>
      <g id="Line_61">
        <line x1="181.92562" y1="-146.51062" x2="465.9256" y2="-146.51062" marker-end="url(#DimensionArrow_Marker)" marker-start="url(#DimensionArrow_Marker_2)" stroke="#929292" stroke-linecap="round" stroke-linejoin="round" stroke-width="1"/>
      </g>
      <g id="Line_62">
        <line x1="132.92562" y1="-194.51062" x2="132.92562" y2="-478.5106" marker-end="url(#DimensionArrow_Marker)" marker-start="url(#DimensionArrow_Marker_2)" stroke="#929292" stroke-linecap="round" stroke-linejoin="round" stroke-width="1"/>
      </g>
      <g id="Graphic_48">
        <path d="M 74.12307 -518.2598 L 78.04307 -533.8348 C 78.20641 -534.5348 78.28807 -535.1298 78.28807 -535.6198 C 78.28807 -536.6931 77.92641 -537.2298 77.20307 -537.2298 C 76.24641 -537.2298 75.46474 -536.12146 74.85807 -533.9048 C 74.78807 -533.6481 74.71807 -533.3681 74.64807 -533.0648 C 74.39141 -532.55146 74.19307 -532.2831 74.05307 -532.2598 C 73.77307 -532.2598 73.63307 -532.37646 73.63307 -532.6098 C 73.63307 -532.9831 73.84307 -533.7648 74.26307 -534.9548 C 74.42641 -535.3748 74.57807 -535.7248 74.71807 -536.0048 C 75.27807 -537.1481 75.97807 -537.80146 76.81807 -537.9648 C 76.98141 -537.9881 77.14474 -537.9998 77.30807 -537.9998 C 78.56807 -537.9998 79.48974 -537.48646 80.07307 -536.4598 L 80.07307 -536.4248 C 80.25974 -536.12146 80.38807 -535.77146 80.45807 -535.3748 C 81.92807 -537.1248 83.45641 -537.9998 85.04307 -537.9998 C 86.69974 -537.9998 87.97141 -537.2531 88.85807 -535.7598 C 89.37141 -534.7098 89.65141 -533.5898 89.69807 -532.3998 C 89.69807 -529.8798 88.81141 -527.54646 87.03807 -525.3998 C 85.42807 -523.4398 83.66641 -522.36646 81.75307 -522.1798 C 81.58974 -522.15646 81.42641 -522.1448 81.26307 -522.1448 C 79.79307 -522.1448 78.71974 -522.89146 78.04307 -524.3848 C 77.17974 -521.3048 76.61974 -519.04146 76.36307 -517.5948 C 76.33974 -517.4781 76.32807 -517.4081 76.32807 -517.3848 C 76.32807 -517.1281 76.47974 -516.9648 76.78307 -516.8948 L 76.81807 -516.8948 C 77.09807 -516.8481 77.51807 -516.8248 78.07807 -516.8248 C 78.59141 -516.8248 78.87141 -516.69646 78.91807 -516.4398 C 78.91807 -515.9731 78.70807 -515.7398 78.28807 -515.7398 L 74.85807 -515.8448 L 74.82307 -515.8448 L 71.95307 -515.7398 L 71.88307 -515.7398 C 71.57974 -515.7398 71.42807 -515.8798 71.42807 -516.1598 C 71.56807 -516.5798 71.83641 -516.80146 72.23307 -516.8248 C 73.09641 -516.8248 73.62141 -516.97646 73.80807 -517.2798 L 73.84307 -517.3148 C 73.88974 -517.4081 73.93641 -517.53646 73.98307 -517.6998 C 74.00641 -517.81646 74.05307 -518.0031 74.12307 -518.2598 Z M 80.28307 -533.4498 L 78.56807 -526.5898 C 78.49807 -526.3098 78.46307 -526.1231 78.46307 -526.0298 C 78.46307 -525.4931 78.67307 -524.88646 79.09307 -524.2098 C 79.34974 -523.76646 79.67641 -523.4281 80.07307 -523.1948 C 80.42307 -523.0081 80.80807 -522.9148 81.22807 -522.9148 C 82.41807 -522.9148 83.53807 -523.66146 84.58807 -525.1548 C 84.89141 -525.5748 85.15974 -526.0298 85.39307 -526.5198 C 86.02307 -527.8498 86.54807 -529.64646 86.96807 -531.9098 C 87.10807 -532.72646 87.17807 -533.4031 87.17807 -533.9398 C 87.17807 -535.7831 86.61807 -536.85646 85.49807 -537.1598 C 85.31141 -537.20646 85.12474 -537.2298 84.93807 -537.2298 C 84.05141 -537.2298 83.10641 -536.78646 82.10307 -535.8998 C 81.09974 -535.0598 80.49307 -534.2431 80.28307 -533.4498 Z" fill="#929292"/>
      </g>
      <g id="Graphic_46">
        <path d="M 513.8298 -97.17557 L 512.6398 -92.38057 C 512.2431 -90.79391 512.0448 -89.76724 512.0448 -89.30057 C 512.0448 -88.08724 512.47646 -87.35224 513.3398 -87.09557 C 513.52646 -87.02557 513.73646 -86.99057 513.9698 -86.99057 C 515.13646 -86.99057 516.1981 -87.57391 517.1548 -88.74057 C 517.7848 -89.48724 518.2748 -90.43224 518.6248 -91.57557 C 518.6948 -91.83224 518.84646 -91.96057 519.0798 -91.96057 C 519.3598 -91.96057 519.4998 -91.84391 519.4998 -91.61057 C 519.4998 -91.02724 519.1381 -90.18724 518.4148 -89.09057 C 517.1548 -87.17724 515.6498 -86.22057 513.8998 -86.22057 C 512.3131 -86.22057 511.1581 -86.88557 510.4348 -88.21557 C 510.2948 -88.42557 510.1898 -88.64724 510.1198 -88.88057 C 509.5598 -87.76057 508.7898 -86.97891 507.8098 -86.53557 C 507.36646 -86.32557 506.91146 -86.22057 506.4448 -86.22057 C 505.0448 -86.22057 504.0648 -86.62891 503.5048 -87.44557 C 503.27146 -87.74891 503.1548 -88.11057 503.1548 -88.53057 C 503.1548 -89.39391 503.5281 -90.00057 504.2748 -90.35057 C 504.53146 -90.49057 504.7998 -90.56057 505.0798 -90.56057 C 505.7798 -90.56057 506.1998 -90.26891 506.3398 -89.68557 C 506.3631 -89.56891 506.3748 -89.45224 506.3748 -89.33557 C 506.3748 -88.54224 505.9781 -87.95891 505.1848 -87.58557 C 505.0448 -87.51557 504.8931 -87.46891 504.7298 -87.44557 C 505.2198 -87.14224 505.8031 -86.99057 506.4798 -86.99057 C 507.71646 -86.99057 508.69646 -87.81891 509.4198 -89.47557 C 509.5598 -89.82557 509.6881 -90.21057 509.8048 -90.63057 C 511.0648 -95.39057 511.6948 -98.16724 511.6948 -98.96057 C 511.5548 -100.40724 510.9248 -101.18891 509.8048 -101.30557 C 508.59146 -101.30557 507.4831 -100.68724 506.4798 -99.45057 L 506.4798 -99.41557 C 506.4798 -99.39224 506.4681 -99.38057 506.4448 -99.38057 C 506.0948 -98.91391 505.7798 -98.37724 505.4998 -97.77057 C 505.3831 -97.49057 505.2781 -97.21057 505.1848 -96.93057 L 505.1148 -96.72057 C 505.0681 -96.46391 504.91646 -96.33557 504.6598 -96.33557 C 504.3798 -96.33557 504.2398 -96.45224 504.2398 -96.68557 C 504.2398 -97.26891 504.6131 -98.10891 505.3598 -99.20557 C 506.6198 -101.11891 508.1248 -102.07557 509.8748 -102.07557 C 511.67146 -102.07557 512.93146 -101.18891 513.6548 -99.41557 C 514.40146 -100.86224 515.3931 -101.72557 516.6298 -102.00557 C 516.8631 -102.05224 517.09646 -102.07557 517.3298 -102.07557 C 518.70646 -102.07557 519.6748 -101.69057 520.2348 -100.92057 C 520.4681 -100.59391 520.5848 -100.20891 520.5848 -99.76557 C 520.5848 -98.80891 520.1531 -98.16724 519.2898 -97.84057 C 519.0798 -97.77057 518.88146 -97.73557 518.6948 -97.73557 C 517.97146 -97.73557 517.5398 -98.05057 517.3998 -98.68057 C 517.37646 -98.77391 517.3648 -98.86724 517.3648 -98.96057 C 517.3648 -99.66057 517.7031 -100.20891 518.3798 -100.60557 C 518.5898 -100.72224 518.81146 -100.80391 519.0448 -100.85057 C 518.5548 -101.15391 517.97146 -101.30557 517.2948 -101.30557 C 515.7081 -101.30557 514.5881 -100.06891 513.9348 -97.59557 C 513.8881 -97.45557 513.8531 -97.31557 513.8298 -97.17557 Z" fill="#929292"/>
      </g>
      <g id="Graphic_65">
        <rect x="105.1375" y="-356.01062" width="56.57625" height="39" fill="white"/>
      </g>
      <g id="Group_52">
        <g id="Group_43">
          <g id="Graphic_44">
            <path d="M 124.92062 -351.80562 L 136.75062 -328.07562 C 136.86729 -327.86562 136.92562 -327.72562 136.92562 -327.65562 C 136.78562 -327.46896 136.52896 -327.37562 136.15562 -327.37562 L 111.86562 -327.37562 C 111.37562 -327.37562 111.11896 -327.46896 111.09562 -327.65562 C 111.09562 -327.72562 111.15396 -327.86562 111.27062 -328.07562 L 123.10062 -351.80562 C 123.28729 -352.15562 123.47396 -352.35396 123.66062 -352.40062 C 123.75396 -352.42396 123.87062 -352.43562 124.01062 -352.43562 C 124.38396 -352.43562 124.64062 -352.3073 124.78062 -352.05062 C 124.80396 -352.00396 124.85062 -351.9223 124.92062 -351.80562 Z M 122.89062 -348.93562 L 113.44062 -330.03562 L 132.30562 -330.03562 Z" fill="#929292"/>
          </g>
        </g>
        <g id="Group_41">
          <g id="Graphic_42">
            <path d="M 140.18062 -323.10562 L 144.10062 -338.68062 C 144.26396 -339.38062 144.34562 -339.97562 144.34562 -340.46562 C 144.34562 -341.53896 143.98396 -342.07562 143.26062 -342.07562 C 142.30396 -342.07562 141.5223 -340.9673 140.91562 -338.75062 C 140.84562 -338.49396 140.77562 -338.21396 140.70562 -337.91062 C 140.44896 -337.3973 140.25062 -337.12896 140.11062 -337.10562 C 139.83062 -337.10562 139.69062 -337.2223 139.69062 -337.45562 C 139.69062 -337.82896 139.90062 -338.61062 140.32062 -339.80062 C 140.48396 -340.22062 140.63562 -340.57062 140.77562 -340.85062 C 141.33562 -341.99396 142.03562 -342.6473 142.87562 -342.81062 C 143.03896 -342.83396 143.2023 -342.84562 143.36562 -342.84562 C 144.62562 -342.84562 145.5473 -342.3323 146.13062 -341.30562 L 146.13062 -341.27062 C 146.3173 -340.9673 146.44562 -340.6173 146.51562 -340.22062 C 147.98562 -341.97062 149.51396 -342.84562 151.10062 -342.84562 C 152.7573 -342.84562 154.02896 -342.09896 154.91562 -340.60562 C 155.42896 -339.55562 155.70896 -338.43562 155.75562 -337.24562 C 155.75562 -334.72562 154.86896 -332.3923 153.09562 -330.24562 C 151.48562 -328.28562 149.72396 -327.2123 147.81062 -327.02562 C 147.6473 -327.0023 147.48396 -326.99062 147.32062 -326.99062 C 145.85062 -326.99062 144.7773 -327.7373 144.10062 -329.23062 C 143.2373 -326.15062 142.6773 -323.8873 142.42062 -322.44062 C 142.3973 -322.32396 142.38562 -322.25396 142.38562 -322.23062 C 142.38562 -321.97396 142.5373 -321.81062 142.84062 -321.74062 L 142.87562 -321.74062 C 143.15562 -321.69396 143.57562 -321.67062 144.13562 -321.67062 C 144.64896 -321.67062 144.92896 -321.5423 144.97562 -321.28562 C 144.97562 -320.81896 144.76562 -320.58562 144.34562 -320.58562 L 140.91562 -320.69062 L 140.88062 -320.69062 L 138.01062 -320.58562 L 137.94062 -320.58562 C 137.63729 -320.58562 137.48562 -320.72562 137.48562 -321.00562 C 137.62562 -321.42562 137.89396 -321.6473 138.29062 -321.67062 C 139.15396 -321.67062 139.67896 -321.8223 139.86562 -322.12562 L 139.90062 -322.16062 C 139.9473 -322.25396 139.99396 -322.3823 140.04062 -322.54562 C 140.06396 -322.6623 140.11062 -322.84896 140.18062 -323.10562 Z M 146.34062 -338.29562 L 144.62562 -331.43562 C 144.55562 -331.15562 144.52062 -330.96896 144.52062 -330.87562 C 144.52062 -330.33896 144.73062 -329.7323 145.15062 -329.05562 C 145.4073 -328.6123 145.73396 -328.27396 146.13062 -328.04062 C 146.48062 -327.85396 146.86562 -327.76062 147.28562 -327.76062 C 148.47562 -327.76062 149.59562 -328.5073 150.64562 -330.00062 C 150.94896 -330.42062 151.2173 -330.87562 151.45062 -331.36562 C 152.08062 -332.69562 152.60562 -334.4923 153.02562 -336.75562 C 153.16562 -337.5723 153.23562 -338.24896 153.23562 -338.78562 C 153.23562 -340.62896 152.67562 -341.7023 151.55562 -342.00562 C 151.36896 -342.0523 151.1823 -342.07562 150.99562 -342.07562 C 150.10896 -342.07562 149.16396 -341.6323 148.16062 -340.74562 C 147.1573 -339.90562 146.55062 -339.08896 146.34062 -338.29562 Z" fill="#929292"/>
          </g>
        </g>
      </g>
      <g id="Graphic_63">
        <rect x="295.6375" y="-165.51062" width="56.57625" height="39" fill="white"/>
      </g>
      <g id="Group_53">
        <g id="Group_39">
          <g id="Graphic_40">
            <path d="M 314.77312 -158.10312 L 326.60312 -134.37312 C 326.7198 -134.16312 326.77812 -134.02312 326.77812 -133.95312 C 326.63812 -133.76646 326.38146 -133.67312 326.00812 -133.67312 L 301.71812 -133.67312 C 301.22812 -133.67312 300.97146 -133.76646 300.94812 -133.95312 C 300.94812 -134.02312 301.00646 -134.16312 301.12312 -134.37312 L 312.95312 -158.10312 C 313.1398 -158.45312 313.32646 -158.65146 313.51312 -158.69812 C 313.60646 -158.72146 313.72312 -158.73312 313.86312 -158.73312 C 314.23646 -158.73312 314.49312 -158.6048 314.63312 -158.34812 C 314.65646 -158.30146 314.70312 -158.2198 314.77312 -158.10312 Z M 312.74312 -155.23312 L 303.29312 -136.33312 L 322.15812 -136.33312 Z" fill="#929292"/>
          </g>
        </g>
        <g id="Group_37">
          <g id="Graphic_38">
            <path d="M 340.14812 -144.24312 L 338.95812 -139.44812 C 338.56146 -137.86146 338.36312 -136.83479 338.36312 -136.36812 C 338.36312 -135.15479 338.7948 -134.41979 339.65812 -134.16312 C 339.8448 -134.09312 340.0548 -134.05812 340.28812 -134.05812 C 341.4548 -134.05812 342.51646 -134.64146 343.47312 -135.80812 C 344.10312 -136.55479 344.59312 -137.49979 344.94312 -138.64312 C 345.01312 -138.89979 345.1648 -139.02812 345.39812 -139.02812 C 345.67812 -139.02812 345.81812 -138.91146 345.81812 -138.67812 C 345.81812 -138.09479 345.45646 -137.25479 344.73312 -136.15812 C 343.47312 -134.24479 341.96812 -133.28812 340.21812 -133.28812 C 338.63146 -133.28812 337.47646 -133.95312 336.75312 -135.28312 C 336.61312 -135.49312 336.50812 -135.71479 336.43812 -135.94812 C 335.87812 -134.82812 335.10812 -134.04646 334.12812 -133.60312 C 333.6848 -133.39312 333.2298 -133.28812 332.76312 -133.28812 C 331.36312 -133.28812 330.38312 -133.69646 329.82312 -134.51312 C 329.5898 -134.81646 329.47312 -135.17812 329.47312 -135.59812 C 329.47312 -136.46146 329.84646 -137.06812 330.59312 -137.41812 C 330.8498 -137.55812 331.11812 -137.62812 331.39812 -137.62812 C 332.09812 -137.62812 332.51812 -137.33646 332.65812 -136.75312 C 332.68146 -136.63646 332.69312 -136.51979 332.69312 -136.40312 C 332.69312 -135.60979 332.29646 -135.02646 331.50312 -134.65312 C 331.36312 -134.58312 331.21146 -134.53646 331.04812 -134.51312 C 331.53812 -134.20979 332.12146 -134.05812 332.79812 -134.05812 C 334.0348 -134.05812 335.0148 -134.88646 335.73812 -136.54312 C 335.87812 -136.89312 336.00646 -137.27812 336.12312 -137.69812 C 337.38312 -142.45812 338.01312 -145.2348 338.01312 -146.02812 C 337.87312 -147.4748 337.24312 -148.25646 336.12312 -148.37312 C 334.9098 -148.37312 333.80146 -147.7548 332.79812 -146.51812 L 332.79812 -146.48312 C 332.79812 -146.4598 332.78646 -146.44812 332.76312 -146.44812 C 332.41312 -145.98146 332.09812 -145.4448 331.81812 -144.83812 C 331.70146 -144.55812 331.59646 -144.27812 331.50312 -143.99812 L 331.43312 -143.78812 C 331.38646 -143.53146 331.2348 -143.40312 330.97812 -143.40312 C 330.69812 -143.40312 330.55812 -143.5198 330.55812 -143.75312 C 330.55812 -144.33646 330.93146 -145.17646 331.67812 -146.27312 C 332.93812 -148.18646 334.44312 -149.14312 336.19312 -149.14312 C 337.9898 -149.14312 339.2498 -148.25646 339.97312 -146.48312 C 340.7198 -147.9298 341.71146 -148.79312 342.94812 -149.07312 C 343.18146 -149.1198 343.4148 -149.14312 343.64812 -149.14312 C 345.0248 -149.14312 345.99312 -148.75812 346.55312 -147.98812 C 346.78646 -147.66146 346.90312 -147.27646 346.90312 -146.83312 C 346.90312 -145.87646 346.47146 -145.2348 345.60812 -144.90812 C 345.39812 -144.83812 345.1998 -144.80312 345.01312 -144.80312 C 344.2898 -144.80312 343.85812 -145.11812 343.71812 -145.74812 C 343.6948 -145.84146 343.68312 -145.9348 343.68312 -146.02812 C 343.68312 -146.72812 344.02146 -147.27646 344.69812 -147.67312 C 344.90812 -147.7898 345.1298 -147.87146 345.36312 -147.91812 C 344.87312 -148.22146 344.2898 -148.37312 343.61312 -148.37312 C 342.02646 -148.37312 340.90646 -147.13646 340.25312 -144.66312 C 340.20646 -144.52312 340.17146 -144.38312 340.14812 -144.24312 Z" fill="#929292"/>
          </g>
        </g>
      </g>
      <g id="Line_69">
        <line x1="246.2941" y1="-242.3288" x2="401.55714" y2="-242.3288" marker-end="url(#DimensionArrow_Marker_3)" marker-start="url(#DimensionArrow_Marker_4)" stroke="#5e5e5e" stroke-linecap="round" stroke-linejoin="round" stroke-width="1"/>
      </g>
      <g id="Graphic_67">
        <rect x="297.53464" y="-261.3288" width="56.57625" height="39" fill="white"/>
      </g>
      <g id="Group_54">
        <g id="Group_35">
          <g id="Graphic_36">
            <path d="M 316.67026 -244.8913 C 315.48026 -247.22463 314.8036 -248.90463 314.64026 -249.9313 C 314.5936 -250.25796 314.57026 -250.57296 314.57026 -250.8763 C 314.57026 -252.71963 315.41026 -253.86296 317.09026 -254.3063 C 317.5336 -254.42296 318.0236 -254.4813 318.56026 -254.4813 C 319.26026 -254.4813 320.21693 -254.35296 321.43026 -254.0963 C 322.41026 -253.8863 322.97026 -253.66463 323.11026 -253.4313 C 323.2036 -253.31463 323.25026 -253.1513 323.25026 -252.9413 C 323.25026 -252.40463 322.9936 -251.9963 322.48026 -251.7163 C 322.2936 -251.59963 322.0836 -251.5413 321.85026 -251.5413 C 321.54693 -251.5413 320.90526 -251.83296 319.92526 -252.4163 C 318.9686 -253.0463 318.14026 -253.3613 317.44026 -253.3613 C 316.53026 -253.3613 315.9236 -253.0113 315.62026 -252.3113 C 315.55026 -252.12463 315.51526 -251.93796 315.51526 -251.7513 C 315.51526 -250.7013 316.6236 -248.78796 318.84026 -246.0113 C 319.96026 -244.5413 320.6836 -243.3163 321.01026 -242.3363 C 321.29026 -241.44963 321.43026 -240.50463 321.43026 -239.5013 C 321.43026 -236.8413 320.73026 -234.44963 319.33026 -232.3263 C 317.9536 -230.2263 316.32026 -229.1763 314.43026 -229.1763 C 312.40026 -229.1763 310.87193 -229.99296 309.84526 -231.6263 C 309.21526 -232.6063 308.90026 -233.74963 308.90026 -235.0563 C 308.90026 -237.41296 309.77526 -239.6063 311.52526 -241.6363 C 312.99526 -243.33963 314.71026 -244.42463 316.67026 -244.8913 Z M 317.09026 -244.1213 C 314.6636 -243.46796 312.90193 -241.48463 311.80526 -238.1713 C 311.31526 -236.65463 311.07026 -235.28963 311.07026 -234.0763 C 311.07026 -232.1163 311.73526 -230.83296 313.06526 -230.2263 C 313.48526 -230.03963 313.94026 -229.9463 314.43026 -229.9463 C 316.01693 -229.9463 317.26526 -231.21796 318.17526 -233.7613 C 318.73526 -235.32463 319.01526 -236.7713 319.01526 -238.1013 C 319.01526 -239.73463 318.45526 -241.6013 317.33526 -243.7013 C 317.2886 -243.7713 317.20693 -243.9113 317.09026 -244.1213 Z" fill="#5e5e5e"/>
          </g>
        </g>
        <g id="Group_33">
          <g id="Graphic_34">
            <path d="M 340.54026 -252.9763 L 341.10026 -252.4513 C 339.8636 -251.09796 339.0236 -250.29296 338.58026 -250.0363 C 338.20693 -249.8263 337.78693 -249.7213 337.32026 -249.7213 C 336.7836 -249.7213 336.06026 -249.98963 335.15026 -250.5263 C 334.17026 -251.10963 333.41193 -251.4013 332.87526 -251.4013 C 331.9186 -251.4013 330.99693 -250.88796 330.11026 -249.8613 L 330.00526 -249.7213 L 329.44526 -250.2463 C 330.68193 -251.59963 331.52193 -252.40463 331.96526 -252.6613 C 332.3386 -252.8713 332.7586 -252.9763 333.22526 -252.9763 C 333.76193 -252.9763 334.48526 -252.70796 335.39526 -252.1713 C 336.3986 -251.58796 337.15693 -251.2963 337.67026 -251.2963 C 338.62693 -251.2963 339.5486 -251.80963 340.43526 -252.8363 Z" fill="#5e5e5e"/>
          </g>
        </g>
        <g id="Group_31">
          <g id="Graphic_32">
            <path d="M 335.99026 -240.1663 L 334.80026 -235.3713 C 334.4036 -233.78463 334.20526 -232.75796 334.20526 -232.2913 C 334.20526 -231.07796 334.63693 -230.34296 335.50026 -230.0863 C 335.68693 -230.0163 335.89693 -229.9813 336.13026 -229.9813 C 337.29693 -229.9813 338.3586 -230.56463 339.31526 -231.7313 C 339.94526 -232.47796 340.43526 -233.42296 340.78526 -234.5663 C 340.85526 -234.82296 341.00693 -234.9513 341.24026 -234.9513 C 341.52026 -234.9513 341.66026 -234.83463 341.66026 -234.6013 C 341.66026 -234.01796 341.2986 -233.17796 340.57526 -232.0813 C 339.31526 -230.16796 337.81026 -229.2113 336.06026 -229.2113 C 334.4736 -229.2113 333.3186 -229.8763 332.59526 -231.2063 C 332.45526 -231.4163 332.35026 -231.63796 332.28026 -231.8713 C 331.72026 -230.7513 330.95026 -229.96963 329.97026 -229.5263 C 329.52693 -229.3163 329.07193 -229.2113 328.60526 -229.2113 C 327.20526 -229.2113 326.22526 -229.61963 325.66526 -230.4363 C 325.43193 -230.73963 325.31526 -231.1013 325.31526 -231.5213 C 325.31526 -232.38463 325.6886 -232.9913 326.43526 -233.3413 C 326.69193 -233.4813 326.96026 -233.5513 327.24026 -233.5513 C 327.94026 -233.5513 328.36026 -233.25963 328.50026 -232.6763 C 328.5236 -232.55963 328.53526 -232.44296 328.53526 -232.3263 C 328.53526 -231.53296 328.1386 -230.94963 327.34526 -230.5763 C 327.20526 -230.5063 327.0536 -230.45963 326.89026 -230.4363 C 327.38026 -230.13296 327.9636 -229.9813 328.64026 -229.9813 C 329.87693 -229.9813 330.85693 -230.80963 331.58026 -232.4663 C 331.72026 -232.8163 331.8486 -233.2013 331.96526 -233.6213 C 333.22526 -238.3813 333.85526 -241.15796 333.85526 -241.9513 C 333.71526 -243.39796 333.08526 -244.17963 331.96526 -244.2963 C 330.75193 -244.2963 329.6436 -243.67796 328.64026 -242.4413 L 328.64026 -242.4063 C 328.64026 -242.38296 328.6286 -242.3713 328.60526 -242.3713 C 328.25526 -241.90463 327.94026 -241.36796 327.66026 -240.7613 C 327.5436 -240.4813 327.4386 -240.2013 327.34526 -239.9213 L 327.27526 -239.7113 C 327.2286 -239.45463 327.07693 -239.3263 326.82026 -239.3263 C 326.54026 -239.3263 326.40026 -239.44296 326.40026 -239.6763 C 326.40026 -240.25963 326.7736 -241.09963 327.52026 -242.1963 C 328.78026 -244.10963 330.28526 -245.0663 332.03526 -245.0663 C 333.83193 -245.0663 335.09193 -244.17963 335.81526 -242.4063 C 336.56193 -243.85296 337.5536 -244.7163 338.79026 -244.9963 C 339.0236 -245.04296 339.25693 -245.0663 339.49026 -245.0663 C 340.86693 -245.0663 341.83526 -244.6813 342.39526 -243.9113 C 342.6286 -243.58463 342.74526 -243.19963 342.74526 -242.7563 C 342.74526 -241.79963 342.3136 -241.15796 341.45026 -240.8313 C 341.24026 -240.7613 341.04193 -240.7263 340.85526 -240.7263 C 340.13193 -240.7263 339.70026 -241.0413 339.56026 -241.6713 C 339.53693 -241.76463 339.52526 -241.85796 339.52526 -241.9513 C 339.52526 -242.6513 339.8636 -243.19963 340.54026 -243.5963 C 340.75026 -243.71296 340.97193 -243.79463 341.20526 -243.8413 C 340.71526 -244.14463 340.13193 -244.2963 339.45526 -244.2963 C 337.8686 -244.2963 336.7486 -243.05963 336.09526 -240.5863 C 336.0486 -240.4463 336.0136 -240.3063 335.99026 -240.1663 Z" fill="#5e5e5e"/>
          </g>
        </g>
      </g>
      <g id="Graphic_70">
        <path d="M 245.51375 -341.01126 C 247.16535 -339.35967 247.16535 -336.6819 245.51375 -335.03032 C 243.86216 -333.37872 241.1844 -333.37872 239.5328 -335.03032 C 237.8812 -336.6819 237.8812 -339.35967 239.5328 -341.01126 C 241.1844 -342.66286 243.86216 -342.66286 245.51375 -341.01126" stroke="#5e5e5e" stroke-linecap="round" stroke-linejoin="round" stroke-dasharray="2.0,2.0" stroke-width="1"/>
      </g>
      <g id="Graphic_71">
        <circle cx="405.32797" cy="-338.0208" r="4.22917342446052" fill="black"/>
      </g>
      <g id="Line_304">
        <line x1="246.75245" y1="-338.0208" x2="391.1988" y2="-338.0208" marker-end="url(#Arrow_Marker)" stroke="#5e5e5e" stroke-linecap="round" stroke-linejoin="round" stroke-dasharray="16.0,9.0" stroke-width="1"/>
      </g>
      <g id="Group_29">
        <g id="Graphic_30">
          <path d="M 244.48328 -401.2919 L 243.29328 -396.4969 C 242.89661 -394.91024 242.69828 -393.88357 242.69828 -393.4169 C 242.69828 -392.20357 243.12995 -391.46857 243.99328 -391.2119 C 244.17995 -391.1419 244.38995 -391.1069 244.62328 -391.1069 C 245.78995 -391.1069 246.8516 -391.69024 247.80828 -392.8569 C 248.43828 -393.60357 248.92828 -394.54857 249.27828 -395.6919 C 249.34828 -395.94857 249.49995 -396.0769 249.73328 -396.0769 C 250.01328 -396.0769 250.15328 -395.96024 250.15328 -395.7269 C 250.15328 -395.14357 249.7916 -394.30357 249.06828 -393.2069 C 247.80828 -391.29357 246.30328 -390.3369 244.55328 -390.3369 C 242.96661 -390.3369 241.81161 -391.0019 241.08828 -392.3319 C 240.94828 -392.5419 240.84328 -392.76357 240.77328 -392.9969 C 240.21328 -391.8769 239.44328 -391.09524 238.46328 -390.6519 C 238.01995 -390.4419 237.56495 -390.3369 237.09828 -390.3369 C 235.69828 -390.3369 234.71828 -390.74524 234.15828 -391.5619 C 233.92495 -391.86524 233.80828 -392.2269 233.80828 -392.6469 C 233.80828 -393.51024 234.18161 -394.1169 234.92828 -394.4669 C 235.18495 -394.6069 235.45328 -394.6769 235.73328 -394.6769 C 236.43328 -394.6769 236.85328 -394.38524 236.99328 -393.8019 C 237.01661 -393.68524 237.02828 -393.56857 237.02828 -393.4519 C 237.02828 -392.65857 236.63161 -392.07524 235.83828 -391.7019 C 235.69828 -391.6319 235.54661 -391.58524 235.38328 -391.5619 C 235.87328 -391.25857 236.45661 -391.1069 237.13328 -391.1069 C 238.36995 -391.1069 239.34995 -391.93524 240.07328 -393.5919 C 240.21328 -393.9419 240.34161 -394.3269 240.45828 -394.7469 C 241.71828 -399.5069 242.34828 -402.28357 242.34828 -403.0769 C 242.20828 -404.52357 241.57828 -405.30524 240.45828 -405.4219 C 239.24495 -405.4219 238.13661 -404.80357 237.13328 -403.5669 L 237.13328 -403.5319 C 237.13328 -403.50857 237.12161 -403.4969 237.09828 -403.4969 C 236.74828 -403.03024 236.43328 -402.49357 236.15328 -401.8869 C 236.03661 -401.6069 235.93161 -401.3269 235.83828 -401.0469 L 235.76828 -400.8369 C 235.72161 -400.58024 235.56995 -400.4519 235.31328 -400.4519 C 235.03328 -400.4519 234.89328 -400.56857 234.89328 -400.8019 C 234.89328 -401.38524 235.26661 -402.22524 236.01328 -403.3219 C 237.27328 -405.23524 238.77828 -406.1919 240.52828 -406.1919 C 242.32495 -406.1919 243.58495 -405.30524 244.30828 -403.5319 C 245.05495 -404.97857 246.0466 -405.8419 247.28328 -406.1219 C 247.5166 -406.16857 247.74995 -406.1919 247.98328 -406.1919 C 249.35995 -406.1919 250.32828 -405.8069 250.88828 -405.0369 C 251.1216 -404.71024 251.23828 -404.32524 251.23828 -403.8819 C 251.23828 -402.92524 250.8066 -402.28357 249.94328 -401.9569 C 249.73328 -401.8869 249.53495 -401.8519 249.34828 -401.8519 C 248.62495 -401.8519 248.19328 -402.1669 248.05328 -402.7969 C 248.02995 -402.89024 248.01828 -402.98357 248.01828 -403.0769 C 248.01828 -403.7769 248.3566 -404.32524 249.03328 -404.7219 C 249.24328 -404.83857 249.46495 -404.92024 249.69828 -404.9669 C 249.20828 -405.27024 248.62495 -405.4219 247.94828 -405.4219 C 246.3616 -405.4219 245.2416 -404.18524 244.58828 -401.7119 C 244.54161 -401.5719 244.50661 -401.4319 244.48328 -401.2919 Z" fill="#5e5e5e"/>
        </g>
      </g>
      <g id="Group_288">
        <g id="Group_296">
          <g id="Graphic_297">
            <path d="M 389.96604 -427.79494 C 390.0827 -428.58827 390.4444 -429.07827 391.05104 -429.26494 C 391.1677 -429.3116 391.29604 -429.33494 391.43604 -429.33494 C 392.0427 -429.33494 392.38104 -429.01994 392.45104 -428.38994 C 392.45104 -428.24994 392.3694 -427.85327 392.20604 -427.19994 L 390.94604 -422.29994 C 390.59604 -420.82994 390.3394 -419.77994 390.17604 -419.14994 C 389.8727 -417.9366 389.72104 -417.07327 389.72104 -416.55994 C 389.72104 -415.4866 390.07104 -414.94994 390.77104 -414.94994 C 391.6577 -414.94994 392.4044 -415.88327 393.01104 -417.74994 C 393.1277 -418.1466 393.2677 -418.65994 393.43104 -419.28994 C 393.6177 -419.6866 393.78104 -419.8966 393.92104 -419.91994 C 394.20104 -419.91994 394.34104 -419.80327 394.34104 -419.56994 C 394.34104 -419.21994 394.13104 -418.40327 393.71104 -417.11994 C 393.57104 -416.72327 393.43104 -416.38494 393.29104 -416.10494 C 392.6377 -414.8216 391.7744 -414.17994 390.70104 -414.17994 C 389.3944 -414.17994 388.4494 -414.73994 387.86604 -415.85994 C 387.7027 -416.13994 387.58604 -416.45494 387.51604 -416.80494 C 386.04604 -415.05494 384.52938 -414.17994 382.96604 -414.17994 C 381.21604 -414.17994 379.92104 -414.97327 379.08104 -416.55994 C 378.5677 -417.49327 378.31104 -418.5666 378.31104 -419.77994 C 378.31104 -422.29994 379.18604 -424.63327 380.93604 -426.77994 C 382.56938 -428.73994 384.3427 -429.81327 386.25604 -429.99994 C 386.4194 -430.02327 386.5827 -430.03494 386.74604 -430.03494 C 388.1694 -430.03494 389.2427 -429.28827 389.96604 -427.79494 Z M 387.69104 -418.72994 L 389.44104 -425.58994 C 389.51104 -425.93994 389.54604 -426.13827 389.54604 -426.18494 C 389.54604 -426.67494 389.33604 -427.26994 388.91604 -427.96994 C 388.4027 -428.83327 387.69104 -429.26494 386.78104 -429.26494 C 385.5677 -429.26494 384.4127 -428.4716 383.31604 -426.88494 C 383.10604 -426.5816 382.9077 -426.25494 382.72104 -425.90494 C 382.04438 -424.5516 381.4727 -422.6266 381.00604 -420.12994 C 380.86604 -419.3366 380.79604 -418.7066 380.79604 -418.23994 C 380.79604 -416.65327 381.23938 -415.6266 382.12604 -415.15994 C 382.3827 -415.01994 382.68604 -414.94994 383.03604 -414.94994 C 384.3427 -414.94994 385.66104 -415.77827 386.99104 -417.43494 C 387.3177 -417.80827 387.5394 -418.19327 387.65604 -418.58994 L 387.65604 -418.62494 C 387.6794 -418.6716 387.69104 -418.7066 387.69104 -418.72994 Z" fill="black"/>
          </g>
        </g>
        <g id="Graphic_295">
          <rect x="376.91104" y="-400.33714" width="18.515" height="1.399965" fill="black"/>
        </g>
        <g id="Group_293">
          <g id="Graphic_294">
            <path d="M 387.02604 -390.78387 L 384.43604 -380.24887 C 385.7894 -381.64887 387.1544 -382.34887 388.53104 -382.34887 C 390.28104 -382.34887 391.5877 -381.54387 392.45104 -379.93387 C 392.94104 -379.00054 393.18604 -377.93887 393.18604 -376.74887 C 393.18604 -374.27554 392.3227 -371.96554 390.59604 -369.81887 C 388.98604 -367.83554 387.2127 -366.73887 385.27604 -366.52887 C 385.08938 -366.50554 384.91438 -366.49387 384.75104 -366.49387 C 383.07104 -366.49387 381.8227 -367.27554 381.00604 -368.83887 C 380.53938 -369.72554 380.30604 -370.77554 380.30604 -371.98887 C 380.30604 -372.7822 380.4927 -373.96054 380.86604 -375.52387 L 383.73604 -386.93387 C 384.0627 -388.31054 384.22604 -389.03387 384.22604 -389.10387 C 384.22604 -389.36054 384.0627 -389.52387 383.73604 -389.59387 C 383.45604 -389.66387 383.03604 -389.69887 382.47604 -389.69887 C 381.9627 -389.69887 381.6827 -389.83887 381.63604 -390.11887 C 381.63604 -390.51554 381.8577 -390.74887 382.30104 -390.81887 L 386.57104 -391.16887 C 386.8744 -391.16887 387.02604 -391.04054 387.02604 -390.78387 Z M 383.73604 -377.55387 L 382.96604 -374.33387 C 382.5927 -372.86387 382.40604 -371.68554 382.40604 -370.79887 C 382.40604 -368.7922 383.0127 -367.6372 384.22604 -367.33387 C 384.38938 -367.2872 384.56438 -367.26387 384.75104 -367.26387 C 385.9877 -367.26387 387.1427 -368.08054 388.21604 -369.71387 C 388.4494 -370.06387 388.67104 -370.44887 388.88104 -370.86887 C 389.51104 -372.19887 390.03604 -373.99554 390.45604 -376.25887 C 390.59604 -377.07554 390.66604 -377.7522 390.66604 -378.28887 C 390.66604 -380.15554 390.0944 -381.22887 388.95104 -381.50887 L 388.91604 -381.54387 C 388.77604 -381.5672 388.6244 -381.57887 388.46104 -381.57887 C 387.06104 -381.57887 385.66104 -380.64554 384.26104 -378.77887 C 384.07438 -378.54554 383.89938 -378.1372 383.73604 -377.55387 Z" fill="black"/>
          </g>
        </g>
        <g id="Group_291">
          <g id="Graphic_292">
            <path d="M 414.1449 -401.45716 L 412.9549 -396.66216 C 412.55823 -395.0755 412.3599 -394.04882 412.3599 -393.58216 C 412.3599 -392.36882 412.79156 -391.63382 413.6549 -391.37716 C 413.84156 -391.30716 414.05156 -391.27216 414.2849 -391.27216 C 415.45156 -391.27216 416.51323 -391.8555 417.4699 -393.02216 C 418.0999 -393.76882 418.5899 -394.71382 418.9399 -395.85716 C 419.0099 -396.11382 419.16156 -396.24216 419.3949 -396.24216 C 419.6749 -396.24216 419.8149 -396.1255 419.8149 -395.89216 C 419.8149 -395.30882 419.45323 -394.46882 418.7299 -393.37216 C 417.4699 -391.45882 415.9649 -390.50216 414.2149 -390.50216 C 412.62823 -390.50216 411.47323 -391.16716 410.7499 -392.49716 C 410.6099 -392.70716 410.5049 -392.92882 410.4349 -393.16216 C 409.8749 -392.04216 409.1049 -391.2605 408.1249 -390.81716 C 407.68156 -390.60716 407.22656 -390.50216 406.7599 -390.50216 C 405.3599 -390.50216 404.3799 -390.9105 403.8199 -391.72716 C 403.58656 -392.0305 403.4699 -392.39216 403.4699 -392.81216 C 403.4699 -393.6755 403.84323 -394.28216 404.5899 -394.63216 C 404.84656 -394.77216 405.1149 -394.84216 405.3949 -394.84216 C 406.0949 -394.84216 406.5149 -394.5505 406.6549 -393.96716 C 406.67823 -393.8505 406.6899 -393.73382 406.6899 -393.61716 C 406.6899 -392.82382 406.29323 -392.2405 405.4999 -391.86716 C 405.3599 -391.79716 405.20823 -391.7505 405.0449 -391.72716 C 405.5349 -391.42382 406.11823 -391.27216 406.7949 -391.27216 C 408.03156 -391.27216 409.01156 -392.1005 409.7349 -393.75716 C 409.8749 -394.10716 410.00323 -394.49216 410.1199 -394.91216 C 411.3799 -399.67216 412.0099 -402.4488 412.0099 -403.24216 C 411.8699 -404.6888 411.2399 -405.4705 410.1199 -405.58716 C 408.90656 -405.58716 407.79823 -404.9688 406.7949 -403.73216 L 406.7949 -403.69716 C 406.7949 -403.6738 406.78323 -403.66216 406.7599 -403.66216 C 406.4099 -403.1955 406.0949 -402.6588 405.8149 -402.05216 C 405.69823 -401.77216 405.59323 -401.49216 405.4999 -401.21216 L 405.4299 -401.00216 C 405.38323 -400.7455 405.23156 -400.61716 404.9749 -400.61716 C 404.6949 -400.61716 404.5549 -400.7338 404.5549 -400.96716 C 404.5549 -401.5505 404.92823 -402.3905 405.6749 -403.48716 C 406.9349 -405.4005 408.4399 -406.35716 410.1899 -406.35716 C 411.98656 -406.35716 413.24656 -405.4705 413.9699 -403.69716 C 414.71656 -405.1438 415.70823 -406.00716 416.9449 -406.28716 C 417.17823 -406.3338 417.41156 -406.35716 417.6449 -406.35716 C 419.02156 -406.35716 419.9899 -405.97216 420.5499 -405.20216 C 420.78323 -404.8755 420.8999 -404.4905 420.8999 -404.04716 C 420.8999 -403.0905 420.46823 -402.4488 419.6049 -402.12216 C 419.3949 -402.05216 419.19656 -402.01716 419.0099 -402.01716 C 418.28656 -402.01716 417.8549 -402.33216 417.7149 -402.96216 C 417.69156 -403.0555 417.6799 -403.1488 417.6799 -403.24216 C 417.6799 -403.94216 418.01823 -404.4905 418.6949 -404.88716 C 418.9049 -405.0038 419.12656 -405.0855 419.3599 -405.13216 C 418.8699 -405.4355 418.28656 -405.58716 417.6099 -405.58716 C 416.02323 -405.58716 414.90323 -404.3505 414.2499 -401.87716 C 414.20323 -401.73716 414.16823 -401.59716 414.1449 -401.45716 Z" fill="black"/>
          </g>
        </g>
        <g id="Group_289">
          <g id="Graphic_290">
            <path d="M 433.7449 -393.47716 C 433.7449 -391.0925 433.44273 -389.24682 432.8384 -387.94016 C 431.87473 -386.11082 430.45373 -385.1635 428.5754 -385.09816 C 427.08906 -385.09816 425.89673 -385.68616 424.9984 -386.86216 C 424.81873 -387.0745 424.66356 -387.31132 424.5329 -387.57266 C 423.7979 -388.92832 423.4304 -390.8965 423.4304 -393.47716 C 423.4304 -395.87816 423.73256 -397.732 424.3369 -399.03866 C 425.15356 -400.868 426.47656 -401.8398 428.3059 -401.95416 L 428.5999 -401.95416 C 430.05356 -401.95416 431.23773 -401.3743 432.1524 -400.21466 L 432.1524 -400.19016 C 432.38106 -399.89616 432.58523 -399.5695 432.7649 -399.21016 C 433.41823 -397.82182 433.7449 -395.91082 433.7449 -393.47716 Z M 428.5754 -385.63716 C 429.6044 -385.63716 430.39656 -386.13532 430.9519 -387.13166 C 431.18056 -387.57266 431.3439 -388.09532 431.4419 -388.69966 C 431.62156 -389.745 431.7114 -391.4355 431.7114 -393.77116 C 431.7114 -396.0415 431.62973 -397.634 431.4664 -398.54866 C 431.1724 -400.1003 430.42106 -401.0313 429.2124 -401.34166 C 429.00006 -401.39066 428.78773 -401.41516 428.5754 -401.41516 C 427.43206 -401.41516 426.59906 -400.8435 426.0764 -399.70016 C 425.89673 -399.30816 425.7579 -398.8345 425.6599 -398.27916 C 425.52923 -397.39716 425.4639 -395.8945 425.4639 -393.77116 C 425.4639 -391.30482 425.55373 -389.58166 425.7334 -388.60166 C 426.0274 -387.03366 426.74606 -386.07816 427.8894 -385.73516 C 428.11806 -385.66982 428.34673 -385.63716 428.5754 -385.63716 Z" fill="black"/>
          </g>
        </g>
      </g>
      <g id="Group_325">
        <g id="Graphic_326">
          <path d="M 239.32078 -296.5627 L 239.32078 -288.7927 C 239.32078 -287.83604 239.46078 -287.26438 239.74078 -287.0777 C 239.99745 -286.89104 240.56911 -286.7977 241.45578 -286.7977 C 242.10911 -286.7977 242.43578 -286.59938 242.43578 -286.2027 C 242.22578 -285.80604 241.84078 -285.59604 241.28078 -285.5727 L 231.69078 -285.5727 C 230.99078 -285.5727 230.60578 -285.7127 230.53578 -285.9927 C 230.51245 -286.0627 230.50078 -286.1327 230.50078 -286.2027 C 230.50078 -286.59938 230.81578 -286.7977 231.44578 -286.7977 C 232.54245 -286.7977 233.19578 -286.96104 233.40578 -287.2877 C 233.52245 -287.47438 233.59245 -287.80104 233.61578 -288.2677 L 233.61578 -288.7927 L 233.61578 -306.3277 C 233.61578 -307.3077 233.46411 -307.89104 233.16078 -308.0777 C 232.90411 -308.24104 232.33245 -308.3227 231.44578 -308.3227 C 230.81578 -308.3227 230.50078 -308.52104 230.50078 -308.9177 C 230.68745 -309.31438 231.08411 -309.52438 231.69078 -309.5477 L 242.68078 -309.5477 C 245.7141 -309.5477 248.10578 -308.8477 249.85578 -307.4477 L 249.89078 -307.4127 C 250.84745 -306.61938 251.47745 -305.65104 251.78078 -304.5077 C 251.89745 -304.04104 251.95578 -303.53938 251.95578 -303.0027 C 251.95578 -299.9927 250.32245 -298.0677 247.05578 -297.2277 C 246.68245 -297.11104 246.2741 -297.0177 245.83078 -296.9477 C 246.78745 -295.4077 248.2341 -293.26104 250.17078 -290.5077 C 251.89745 -288.22104 253.18078 -286.98438 254.02078 -286.7977 C 254.37078 -286.7277 254.54578 -286.52938 254.54578 -286.2027 C 254.33578 -285.80604 253.95078 -285.59604 253.39078 -285.5727 L 248.56078 -285.5727 C 248.00078 -285.5727 247.66245 -285.65438 247.54578 -285.8177 C 247.4991 -285.86438 247.45245 -285.9227 247.40578 -285.9927 L 245.83078 -288.4427 L 240.58078 -296.5627 Z M 246.07578 -298.2777 C 248.92245 -298.79104 250.46245 -300.1327 250.69578 -302.3027 C 250.7191 -302.53604 250.73078 -302.76938 250.73078 -303.0027 C 250.73078 -305.26604 249.4241 -306.8177 246.81078 -307.6577 C 246.4841 -307.77438 246.15745 -307.8677 245.83078 -307.9377 C 246.71745 -306.79438 247.16078 -305.1377 247.16078 -302.9677 C 247.16078 -300.7977 246.7991 -299.23438 246.07578 -298.2777 Z M 239.32078 -306.4327 L 239.32078 -297.7877 C 242.05078 -297.7877 243.82411 -298.0677 244.64078 -298.6277 C 244.85078 -298.79104 245.03745 -298.98938 245.20078 -299.2227 C 245.69078 -299.89938 245.93578 -301.1477 245.93578 -302.9677 C 245.93578 -305.67438 245.21245 -307.33104 243.76578 -307.9377 C 243.18245 -308.19438 242.42411 -308.3227 241.49078 -308.3227 C 240.11411 -308.3227 239.39078 -307.82104 239.32078 -306.8177 Z M 234.56078 -286.7977 L 238.37578 -286.7977 C 238.18911 -287.2177 238.09578 -287.85938 238.09578 -288.7227 L 238.09578 -306.5377 C 238.09578 -307.35438 238.24745 -307.94938 238.55078 -308.3227 L 234.56078 -308.3227 C 234.74745 -307.9027 234.84078 -307.26104 234.84078 -306.3977 L 234.84078 -288.7227 C 234.84078 -287.85938 234.74745 -287.2177 234.56078 -286.7977 Z M 242.01578 -296.5627 L 248.31578 -286.7977 L 251.71078 -286.7977 C 249.9841 -288.52438 247.58078 -291.84938 244.50078 -296.7727 C 243.80078 -296.67938 243.19411 -296.6327 242.68078 -296.6327 C 242.56411 -296.6327 242.34245 -296.60938 242.01578 -296.5627 Z" fill="#5e5e5e"/>
        </g>
      </g>
      <g id="Group_330">
        <g id="Group_323">
          <g id="Graphic_324">
            <path d="M 402.23047 -284.5927 C 402.93047 -283.0527 404.0738 -281.95604 405.66047 -281.3027 C 406.47714 -280.97604 407.34047 -280.8127 408.25047 -280.8127 C 408.88047 -280.8127 409.52214 -280.89438 410.17547 -281.0577 C 410.3388 -281.10438 410.45547 -281.1277 410.52547 -281.1277 C 410.85214 -281.1277 411.05047 -280.9177 411.12047 -280.4977 C 411.12047 -280.2177 410.87547 -279.98438 410.38547 -279.7977 L 410.35047 -279.7627 L 410.31547 -279.7627 C 410.29214 -279.73938 410.2338 -279.71604 410.14047 -279.6927 C 408.32047 -278.9927 406.4888 -278.6427 404.64547 -278.6427 C 401.56547 -278.6427 399.0338 -279.7627 397.05047 -282.0027 C 396.3038 -282.81938 395.7088 -283.74104 395.26547 -284.7677 C 392.25547 -285.56104 389.98047 -287.22938 388.44047 -289.7727 C 387.25047 -291.77938 386.65547 -294.15938 386.65547 -296.9127 C 386.65547 -301.48604 388.23047 -304.91604 391.38047 -307.2027 C 393.55047 -308.76604 396.1288 -309.5477 399.11547 -309.5477 C 402.7088 -309.5477 405.66047 -308.4627 407.97047 -306.2927 C 409.55714 -304.77604 410.6188 -302.8627 411.15547 -300.5527 C 411.43547 -299.40938 411.57547 -298.18438 411.57547 -296.8777 C 411.57547 -292.35104 410.0238 -288.94438 406.92047 -286.6577 C 405.5438 -285.63104 403.98047 -284.9427 402.23047 -284.5927 Z M 394.28547 -307.3427 L 394.25047 -307.3777 C 391.98714 -306.51438 390.29547 -304.98604 389.17547 -302.7927 C 388.31214 -301.1127 387.88047 -299.14104 387.88047 -296.8777 C 387.88047 -292.6077 389.36214 -289.4577 392.32547 -287.4277 C 392.95547 -286.98438 393.62047 -286.63438 394.32047 -286.3777 C 392.50047 -288.52438 391.59047 -292.03604 391.59047 -296.9127 C 391.59047 -301.76604 392.4888 -305.2427 394.28547 -307.3427 Z M 403.98047 -307.3777 L 403.94547 -307.3427 C 405.74214 -305.2427 406.64047 -301.75438 406.64047 -296.8777 C 406.64047 -292.02438 405.73047 -288.52438 403.91047 -286.3777 C 406.33714 -287.31104 408.11047 -288.9677 409.23047 -291.3477 C 409.97714 -292.93438 410.35047 -294.78938 410.35047 -296.9127 C 410.35047 -301.1127 408.91547 -304.23938 406.04547 -306.2927 C 405.3688 -306.75938 404.68047 -307.12104 403.98047 -307.3777 Z M 399.11547 -285.4677 C 402.6388 -285.4677 404.69214 -288.2327 405.27547 -293.7627 C 405.3688 -294.7427 405.41547 -295.7927 405.41547 -296.9127 C 405.41547 -303.25938 403.92214 -306.9577 400.93547 -308.0077 C 400.37547 -308.2177 399.7688 -308.3227 399.11547 -308.3227 C 395.59214 -308.3227 393.5388 -305.5577 392.95547 -300.0277 C 392.86214 -299.0477 392.81547 -297.9977 392.81547 -296.8777 C 392.81547 -290.53104 394.3088 -286.8327 397.29547 -285.7827 C 397.85547 -285.5727 398.46214 -285.4677 399.11547 -285.4677 Z M 396.80547 -284.4177 C 398.2288 -281.94438 400.3288 -280.47438 403.10547 -280.0077 C 403.6188 -279.91438 404.13214 -279.8677 404.64547 -279.8677 C 405.3688 -279.8677 405.73047 -279.89104 405.73047 -279.9377 C 405.73047 -279.96104 405.60214 -280.01938 405.34547 -280.1127 C 403.31547 -280.92938 401.8688 -282.34104 401.00547 -284.3477 C 400.35214 -284.2777 399.72214 -284.2427 399.11547 -284.2427 C 398.2288 -284.2427 397.4588 -284.30104 396.80547 -284.4177 Z" fill="black"/>
          </g>
        </g>
        <g id="Group_321">
          <g id="Graphic_322">
            <path d="M 424.00047 -285.6777 C 424.00047 -283.29304 423.6983 -281.44738 423.09397 -280.1407 C 422.1303 -278.31138 420.7093 -277.36404 418.83097 -277.2987 C 417.34464 -277.2987 416.1523 -277.8867 415.25397 -279.0627 C 415.0743 -279.27504 414.91914 -279.51188 414.78847 -279.7732 C 414.05347 -281.12888 413.68597 -283.09704 413.68597 -285.6777 C 413.68597 -288.0787 413.98814 -289.93254 414.59247 -291.2392 C 415.40914 -293.06854 416.73214 -294.04038 418.56147 -294.1547 L 418.85547 -294.1547 C 420.30914 -294.1547 421.4933 -293.57488 422.40797 -292.4152 L 422.40797 -292.3907 C 422.63664 -292.0967 422.8408 -291.77004 423.02047 -291.4107 C 423.6738 -290.02238 424.00047 -288.11138 424.00047 -285.6777 Z M 418.83097 -277.8377 C 419.85997 -277.8377 420.65214 -278.33588 421.20747 -279.3322 C 421.43614 -279.7732 421.59947 -280.29588 421.69747 -280.9002 C 421.87714 -281.94554 421.96697 -283.63604 421.96697 -285.9717 C 421.96697 -288.24204 421.8853 -289.83454 421.72197 -290.7492 C 421.42797 -292.30088 420.67664 -293.23188 419.46797 -293.5422 C 419.25564 -293.5912 419.0433 -293.6157 418.83097 -293.6157 C 417.68764 -293.6157 416.85464 -293.04404 416.33197 -291.9007 C 416.1523 -291.5087 416.01347 -291.03504 415.91547 -290.4797 C 415.7848 -289.5977 415.71947 -288.09504 415.71947 -285.9717 C 415.71947 -283.50538 415.8093 -281.7822 415.98897 -280.8022 C 416.28297 -279.2342 417.00164 -278.2787 418.14497 -277.9357 C 418.37364 -277.87038 418.6023 -277.8377 418.83097 -277.8377 Z" fill="black"/>
          </g>
        </g>
      </g>
    </g>
  </g>
</svg>
